<?xml version="1.0" encoding="UTF-8"?>
<svg width="68px" height="67px" viewBox="0 0 68 67" version="1.1" xmlns="http://www.w3.org/2000/svg" xmlns:xlink="http://www.w3.org/1999/xlink">
    <title>Combined Shape</title>
    <g id="Page-1" stroke="none" stroke-width="1" fill="none" fill-rule="evenodd">
        <g id="sign-in" transform="translate(-179.000000, -199.000000)" fill="#FFFFFF" fill-rule="nonzero">
            <g id="text" transform="translate(77.710938, 199.000000)">
                <g id="chat" transform="translate(101.671875, 0.000000)">
                    <path d="M33.4831603,0.5 C42.4360947,0.5 50.8365536,3.93255814 57.1687715,10.1697674 C63.5009893,16.4069767 67,24.6813953 67,33.5 C67,42.3186047 63.5151553,50.5930233 57.1829375,56.8302326 C50.7232254,63.1930233 42.1386079,66.5 33.4689943,66.5 C28.0717348,66.5 22.6319772,65.2162791 17.6596988,62.5790698 C13.1973977,65.7465116 8.83425879,66.4302326 5.8735574,66.4302326 C4.76860664,66.4302326 3.86198038,66.3325581 3.22450879,66.2348837 C1.86456939,66.0255814 0.816282776,64.9790698 0.603792245,63.6395349 C0.391301715,62.3 1.08543745,61.0023256 2.31788252,60.4023256 C4.88193493,59.1604651 6.61019124,56.6767442 7.68680993,54.5418605 C-3.29186748,41.5232558 -2.44190536,22.2255814 9.7975492,10.1697674 C16.129767,3.93255814 24.530226,0.5 33.4831603,0.5 Z M54.4488927,12.8348837 C42.8894078,1.43488372 24.0627468,1.43488372 12.4890959,12.8348837 C1.41125626,23.7465116 0.872946917,41.327907 11.2424848,52.8674419 C11.5116395,53.1744186 11.6674659,53.5511628 11.709964,53.927907 C11.8091262,54.3186047 11.7807941,54.7372093 11.6108017,55.1418605 C10.5483491,57.527907 8.73509654,60.5976744 5.85939137,62.6627907 L5.85939137,62.6627907 L5.8735574,62.6627907 C8.36677963,62.6627907 12.134945,62.0488372 15.9739406,59.1186047 C16.0164387,59.0767442 16.0731029,59.0348837 16.129767,59.0069767 C16.7389065,58.4069767 17.6880309,58.2674419 18.4529968,58.7139535 C30.0974779,65.4534884 44.9009848,63.5837209 54.4630587,54.1651163 C66.0367096,42.7651163 66.0367096,24.2348837 54.4488927,12.8348837 Z M33.5,31.5 C34.8807119,31.5 36,32.6192881 36,34 C36,35.3807119 34.8807119,36.5 33.5,36.5 C32.1192881,36.5 31,35.3807119 31,34 C31,32.6192881 32.1192881,31.5 33.5,31.5 Z M45.5,31.5 C46.8807119,31.5 48,32.6192881 48,34 C48,35.3807119 46.8807119,36.5 45.5,36.5 C44.1192881,36.5 43,35.3807119 43,34 C43,32.6192881 44.1192881,31.5 45.5,31.5 Z M21.5,31.5 C22.8807119,31.5 24,32.6192881 24,34 C24,35.3807119 22.8807119,36.5 21.5,36.5 C20.1192881,36.5 19,35.3807119 19,34 C19,32.6192881 20.1192881,31.5 21.5,31.5 Z" id="Combined-Shape"></path>
                </g>
            </g>
        </g>
    </g>
</svg>